<?xml version="1.0" encoding="UTF-8"?>
<svg id="Layer_2" data-name="Layer 2" xmlns="http://www.w3.org/2000/svg" viewBox="0 0 483.6 483.6">
  <defs>
    <style>
      .cls-1 {
        fill: #fff;
      }

      .cls-2 {
        fill: #5997a5;
      }
    </style>
  </defs>
  <g id="Layer_2-2" data-name="Layer 2">
    <g>
      <path class="cls-2" d="M241.8,0h0c133.5,0,241.8,108.2,241.8,241.8h0c0,133.5-108.2,241.8-241.8,241.8h0C108.2,483.5,0,375.3,0,241.8H0C0,108.2,108.2,0,241.8,0Z"/>
      <path class="cls-1" d="M176.2,229.2c-6.9,6.9-6.9,18.1,0,25l106.1,106.1c6.9,6.9,18.1,6.9,25,0,6.9-6.9,6.9-18.1,0-25l-93.6-93.6,93.5-93.6c6.9-6.9,6.9-18.1,0-25s-18.1-6.9-25,0l-106,106.1h0Z"/>
    </g>
  </g>
</svg>