<?xml version="1.0" encoding="utf-8"?>
<!-- Generator: Adobe Illustrator 26.5.0, SVG Export Plug-In . SVG Version: 6.00 Build 0)  -->
<svg version="1.1" id="Layer_2_00000054948464284941850390000001669571561467345793_"
	 xmlns="http://www.w3.org/2000/svg" xmlns:xlink="http://www.w3.org/1999/xlink" x="0px" y="0px" viewBox="0 0 483.6 483.6"
	 style="enable-background:new 0 0 483.6 483.6;" xml:space="preserve">
<style type="text/css">
	.st0{fill:#5997A5;}
	.st1{fill:#FFFFFF;}
</style>
<path class="st0" d="M241.8,0L241.8,0c133.5,0,241.8,108.2,241.8,241.8l0,0c0,133.5-108.2,241.8-241.8,241.8l0,0
	C108.2,483.5,0,375.3,0,241.8l0,0C0,108.2,108.2,0,241.8,0z"/>
<path class="st1" d="M307.3,254.2c6.9-6.9,6.9-18.1,0-25L201.2,123.1c-6.9-6.9-18.1-6.9-25,0c-6.9,6.9-6.9,18.1,0,25l93.6,93.6
	l-93.5,93.6c-6.9,6.9-6.9,18.1,0,25c6.9,6.9,18.1,6.9,25,0L307.3,254.2L307.3,254.2L307.3,254.2z"/>
<path class="st1" d="M307.3,254.2c6.9-6.9,6.9-18.1,0-25L201.2,123.1c-6.9-6.9-18.1-6.9-25,0c-6.9,6.9-6.9,18.1,0,25l93.6,93.6
	l-93.5,93.6c-6.9,6.9-6.9,18.1,0,25c6.9,6.9,18.1,6.9,25,0L307.3,254.2L307.3,254.2L307.3,254.2z"/>
</svg>
