<?xml version="1.0" encoding="UTF-8"?>
<svg id="Layer_1" data-name="Layer 1" xmlns="http://www.w3.org/2000/svg" viewBox="0 0 310.52 298.88">
  <defs>
    <style>
      .cls-1 {
        fill: #0178a7;
      }

      .cls-2 {
        fill: #27aae1;
      }
    </style>
  </defs>
  <path class="cls-1" d="M253.03,130.35h-117.6c-7.29,0-11.84,7.89-8.2,14.2l58.79,101.84c1.69,2.93,1.69,6.54,0,9.47l-22.1,38.29c-3.64,6.31-12.75,6.31-16.4,0L36.11,101.15c-3.64-6.31,.91-14.2,8.2-14.2h222.84c7.29,0,11.84,7.89,8.2,14.2l-14.12,24.46c-1.69,2.93-4.82,4.73-8.2,4.73Z"/>
  <path class="cls-2" d="M288.3,48.5H26.73c-2.95,0-5.68-1.57-7.15-4.13L1.12,12.39C-2.06,6.88,1.91,0,8.27,0H302.24c6.36,0,10.33,6.88,7.15,12.39l-21.1,36.11Z"/>
</svg>